# xmcd CD database file
#
# Track frame offsets:
#	150
#	14123
#	28507
#	45190
#	77014
#	88157
#	132724
#	153540
#	179000
#	196178
#	212040
#	230453
#	250185
#
# Disc length: 3773 seconds
#
# Revision: 3
# Processed by: cddbd v1.5.2PL0 Copyright (c) Steve Scherf et al.
# Submitted via: CDex 1.70beta2
#
DISCID=af0ebb0d
DTITLE=Isokynä Lindholm and Orfeus - Lillan
DYEAR=1974
DGENRE=Blues
TTITLE0=Hei, mitä on olla vapaa?
TTITLE1=Milk-Jug Illusions
TTITLE2=Love You More Than Money (Almost)
TTITLE3=Pan the Book
TTITLE4=Liian nopee Lindholm
TTITLE5=Limousine
TTITLE6=Gruusam Tuusam
TTITLE7=Blues in a Way
TTITLE8=Everybody's Queen
TTITLE9=Rock-Kukko
TTITLE10=Don't Blame Me
TTITLE11=Heard News
TTITLE12=Knockin' on The Heavens Door
EXTD=YEAR: 1974
EXTT0=
EXTT1=
EXTT2=
EXTT3=
EXTT4=
EXTT5=
EXTT6=
EXTT7=
EXTT8=
EXTT9=
EXTT10=
EXTT11=
EXTT12=
PLAYORDER=
